<svg xmlns="http://www.w3.org/2000/svg" version="1.1" xmlns:xlink="http://www.w3.org/1999/xlink" xmlns:svgjs="http://svgjs.dev/svgjs" viewBox="0 0 800 800"><defs><linearGradient x1="50%" y1="0%" x2="50%" y2="100%" id="ffflurry-grad" gradientTransform="rotate(270)"><stop stop-color="hsl(238, 82%, 13%)" stop-opacity="1" offset="0%"></stop><stop stop-color="hsl(1.4, 100%, 67%)" stop-opacity="1" offset="45%"></stop><stop stop-color="hsl(167, 52%, 78%)" stop-opacity="1" offset="100%"></stop></linearGradient></defs><rect width="100%" height="100%" fill="hsl(238, 82%, 13%)"></rect><g fill="url(#ffflurry-grad)"><rect width="517" height="3" x="428.5" y="393.5" rx="1.5" transform="rotate(45, 687, 395)" opacity="0.35"></rect><rect width="208" height="3" x="-62" y="571.5" rx="1.5" transform="rotate(45, 42, 573)" opacity="0.55"></rect><rect width="627" height="3" x="66.5" y="131.5" rx="1.5" transform="rotate(45, 380, 133)" opacity="0.16"></rect><rect width="582" height="3" x="13" y="382.5" rx="1.5" transform="rotate(45, 304, 384)" opacity="0.82"></rect><rect width="331" height="3" x="-47.5" y="254.5" rx="1.5" transform="rotate(45, 118, 256)" opacity="0.41"></rect><rect width="68" height="3" x="639" y="31.5" rx="1.5" transform="rotate(45, 673, 33)" opacity="0.10"></rect><rect width="445" height="3" x="76.5" y="53.5" rx="1.5" transform="rotate(45, 299, 55)" opacity="0.71"></rect><rect width="627" height="3" x="196.5" y="142.5" rx="1.5" transform="rotate(45, 510, 144)" opacity="0.61"></rect><rect width="295" height="3" x="139.5" y="496.5" rx="1.5" transform="rotate(45, 287, 498)" opacity="0.36"></rect><rect width="419" height="3" x="397.5" y="88.5" rx="1.5" transform="rotate(45, 607, 90)" opacity="0.25"></rect><rect width="325" height="3" x="605.5" y="259.5" rx="1.5" transform="rotate(45, 768, 261)" opacity="0.61"></rect><rect width="459" height="3" x="-180.5" y="643.5" rx="1.5" transform="rotate(45, 49, 645)" opacity="0.76"></rect><rect width="252" height="3" x="606" y="72.5" rx="1.5" transform="rotate(45, 732, 74)" opacity="0.31"></rect><rect width="460" height="3" x="536" y="28.5" rx="1.5" transform="rotate(45, 766, 30)" opacity="0.71"></rect><rect width="232" height="3" x="575" y="289.5" rx="1.5" transform="rotate(45, 691, 291)" opacity="0.84"></rect><rect width="115" height="3" x="76.5" y="456.5" rx="1.5" transform="rotate(45, 134, 458)" opacity="0.51"></rect><rect width="575" height="3" x="332.5" y="443.5" rx="1.5" transform="rotate(45, 620, 445)" opacity="0.95"></rect><rect width="418" height="3" x="270" y="747.5" rx="1.5" transform="rotate(45, 479, 749)" opacity="0.12"></rect><rect width="565" height="3" x="-218.5" y="742.5" rx="1.5" transform="rotate(45, 64, 744)" opacity="0.86"></rect><rect width="429" height="3" x="38.5" y="759.5" rx="1.5" transform="rotate(45, 253, 761)" opacity="0.42"></rect><rect width="349" height="3" x="212.5" y="343.5" rx="1.5" transform="rotate(45, 387, 345)" opacity="0.27"></rect><rect width="45" height="3" x="104.5" y="383.5" rx="1.5" transform="rotate(45, 127, 385)" opacity="0.36"></rect><rect width="317" height="3" x="96.5" y="147.5" rx="1.5" transform="rotate(45, 255, 149)" opacity="0.28"></rect><rect width="220" height="3" x="-60" y="411.5" rx="1.5" transform="rotate(45, 50, 413)" opacity="0.43"></rect><rect width="238" height="3" x="132" y="431.5" rx="1.5" transform="rotate(45, 251, 433)" opacity="0.07"></rect><rect width="387" height="3" x="199.5" y="429.5" rx="1.5" transform="rotate(45, 393, 431)" opacity="0.32"></rect><rect width="397" height="3" x="529.5" y="727.5" rx="1.5" transform="rotate(45, 728, 729)" opacity="0.15"></rect><rect width="288" height="3" x="409" y="232.5" rx="1.5" transform="rotate(45, 553, 234)" opacity="0.78"></rect><rect width="207" height="3" x="484.5" y="723.5" rx="1.5" transform="rotate(45, 588, 725)" opacity="0.15"></rect><rect width="38" height="3" x="300" y="578.5" rx="1.5" transform="rotate(45, 319, 580)" opacity="0.62"></rect><rect width="55" height="3" x="480.5" y="329.5" rx="1.5" transform="rotate(45, 508, 331)" opacity="0.64"></rect><rect width="218" height="3" x="659" y="138.5" rx="1.5" transform="rotate(45, 768, 140)" opacity="0.54"></rect><rect width="78" height="3" x="316" y="494.5" rx="1.5" transform="rotate(45, 355, 496)" opacity="0.87"></rect><rect width="307" height="3" x="315.5" y="489.5" rx="1.5" transform="rotate(45, 469, 491)" opacity="0.15"></rect><rect width="297" height="3" x="483.5" y="320.5" rx="1.5" transform="rotate(45, 632, 322)" opacity="0.87"></rect><rect width="223" height="3" x="403.5" y="43.5" rx="1.5" transform="rotate(45, 515, 45)" opacity="0.52"></rect><rect width="146" height="3" x="694" y="442.5" rx="1.5" transform="rotate(45, 767, 444)" opacity="0.55"></rect><rect width="487" height="3" x="187.5" y="51.5" rx="1.5" transform="rotate(45, 431, 53)" opacity="0.37"></rect><rect width="435" height="3" x="193.5" y="566.5" rx="1.5" transform="rotate(45, 411, 568)" opacity="0.61"></rect><rect width="408" height="3" x="551" y="578.5" rx="1.5" transform="rotate(45, 755, 580)" opacity="0.42"></rect><rect width="504" height="3" x="51" y="215.5" rx="1.5" transform="rotate(45, 303, 217)" opacity="0.08"></rect><rect width="562" height="3" x="134" y="226.5" rx="1.5" transform="rotate(45, 415, 228)" opacity="0.41"></rect><rect width="76" height="3" x="342" y="733.5" rx="1.5" transform="rotate(45, 380, 735)" opacity="0.33"></rect><rect width="207" height="3" x="448.5" y="15.5" rx="1.5" transform="rotate(45, 552, 17)" opacity="0.22"></rect><rect width="148" height="3" x="578" y="611.5" rx="1.5" transform="rotate(45, 652, 613)" opacity="0.70"></rect><rect width="153" height="3" x="117.5" y="401.5" rx="1.5" transform="rotate(45, 194, 403)" opacity="0.38"></rect><rect width="89" height="3" x="316.5" y="646.5" rx="1.5" transform="rotate(45, 361, 648)" opacity="0.54"></rect><rect width="85" height="3" x="507.5" y="569.5" rx="1.5" transform="rotate(45, 550, 571)" opacity="0.86"></rect><rect width="261" height="3" x="-35.5" y="32.5" rx="1.5" transform="rotate(45, 95, 34)" opacity="0.07"></rect><rect width="170" height="3" x="183" y="665.5" rx="1.5" transform="rotate(45, 268, 667)" opacity="0.08"></rect><rect width="326" height="3" x="-45" y="552.5" rx="1.5" transform="rotate(45, 118, 554)" opacity="0.23"></rect><rect width="114" height="3" x="655" y="207.5" rx="1.5" transform="rotate(45, 712, 209)" opacity="0.15"></rect><rect width="340" height="3" x="402" y="332.5" rx="1.5" transform="rotate(45, 572, 334)" opacity="0.13"></rect><rect width="462" height="3" x="-28" y="228.5" rx="1.5" transform="rotate(45, 203, 230)" opacity="0.26"></rect><rect width="64" height="3" x="0" y="51.5" rx="1.5" transform="rotate(45, 32, 53)" opacity="0.80"></rect><rect width="268" height="3" x="479" y="176.5" rx="1.5" transform="rotate(45, 613, 178)" opacity="0.43"></rect><rect width="109" height="3" x="625.5" y="129.5" rx="1.5" transform="rotate(45, 680, 131)" opacity="0.79"></rect><rect width="269" height="3" x="562.5" y="494.5" rx="1.5" transform="rotate(45, 697, 496)" opacity="0.55"></rect><rect width="225" height="3" x="47.5" y="702.5" rx="1.5" transform="rotate(45, 160, 704)" opacity="0.91"></rect><rect width="61" height="3" x="220.5" y="565.5" rx="1.5" transform="rotate(45, 251, 567)" opacity="0.20"></rect><rect width="386" height="3" x="-62" y="329.5" rx="1.5" transform="rotate(45, 131, 331)" opacity="0.60"></rect><rect width="364" height="3" x="18" y="501.5" rx="1.5" transform="rotate(45, 200, 503)" opacity="0.97"></rect><rect width="294" height="3" x="311" y="296.5" rx="1.5" transform="rotate(45, 458, 298)" opacity="0.15"></rect><rect width="195" height="3" x="497.5" y="30.5" rx="1.5" transform="rotate(45, 595, 32)" opacity="0.38"></rect><rect width="265" height="3" x="12.5" y="131.5" rx="1.5" transform="rotate(45, 145, 133)" opacity="0.73"></rect><rect width="360" height="3" x="582" y="346.5" rx="1.5" transform="rotate(45, 762, 348)" opacity="0.60"></rect><rect width="493" height="3" x="-203.5" y="493.5" rx="1.5" transform="rotate(45, 43, 495)" opacity="0.78"></rect><rect width="266" height="3" x="49" y="599.5" rx="1.5" transform="rotate(45, 182, 601)" opacity="0.21"></rect><rect width="539" height="3" x="-220.5" y="205.5" rx="1.5" transform="rotate(45, 49, 207)" opacity="0.75"></rect><rect width="491" height="3" x="-198.5" y="124.5" rx="1.5" transform="rotate(45, 47, 126)" opacity="0.77"></rect><rect width="277" height="3" x="367.5" y="408.5" rx="1.5" transform="rotate(45, 506, 410)" opacity="0.74"></rect><rect width="139" height="3" x="414.5" y="629.5" rx="1.5" transform="rotate(45, 484, 631)" opacity="0.49"></rect><rect width="206" height="3" x="-65" y="315.5" rx="1.5" transform="rotate(45, 38, 317)" opacity="0.12"></rect><rect width="553" height="3" x="35.5" y="289.5" rx="1.5" transform="rotate(45, 312, 291)" opacity="0.49"></rect><rect width="420" height="3" x="369" y="498.5" rx="1.5" transform="rotate(45, 579, 500)" opacity="0.31"></rect><rect width="248" height="3" x="70" y="42.5" rx="1.5" transform="rotate(45, 194, 44)" opacity="0.86"></rect><rect width="350" height="3" x="43" y="319.5" rx="1.5" transform="rotate(45, 218, 321)" opacity="0.81"></rect></g></svg>